<?xml version="1.0" encoding="utf-8"?>
<!-- Generator: Adobe Illustrator 27.8.1, SVG Export Plug-In . SVG Version: 6.00 Build 0)  -->
<svg version="1.1" id="Capa_2_00000134226887620666375350000012259052429579134354_"
	 xmlns="http://www.w3.org/2000/svg" xmlns:xlink="http://www.w3.org/1999/xlink" x="0px" y="0px" viewBox="0 0 269 269"
	 style="enable-background:new 0 0 269 269;" xml:space="preserve">
<style type="text/css">
	.st0{fill:#F9F4D9;}
	.st1{fill:#0F0D0E;}
</style>
<g id="Capa_1-2">
	<g>
		<path class="st0" d="M77.5,248.7c-31.6,0-57.2-25.7-57.2-57.2V77.5C20.3,46,46,20.3,77.5,20.3h113.9c31.6,0,57.2,25.7,57.2,57.2
			v113.9c0,31.6-25.7,57.2-57.2,57.2H77.5z M191.5,204.4c7.1,0,12.9-5.8,12.9-12.9v-12.1c-2.2,12.7-12.3,22.8-25.1,25.1H191.5z
			 M64.6,191.5c0,7.1,5.8,12.9,12.9,12.9h12.1c-12.7-2.2-22.8-12.3-25.1-25.1V191.5z M160.6,160.6v-38.3l-8.3,8.3v7.9
			c0,11-7.8,20.2-18.1,22.2H160.6z M125.9,160.6c-8.8-1.7-15.7-8.5-17.5-17.2v17.2H125.9z M108.4,122.5c0.4-2.3,0.9-4.6,1.7-6.8
			l-1.7,1.7V122.5z M175.7,64.6c14.6,2.6,26.2,14.2,28.6,28.9v-16c0-7.1-5.8-12.9-12.9-12.9H175.7z M112.3,64.6
			c4.2,0.8,8.1,2.8,11.1,5.7c4.5,4.2,6.9,9.8,7,15.8c0,1.3-0.1,2.6-0.3,3.9l16.4-16.4c4.7-4.7,10.7-7.8,17.1-9H112.3z M77.5,64.6
			c-7.1,0-12.9,5.8-12.9,12.9v4.2c1.8-8.6,8.6-15.4,17.2-17.2H77.5z"/>
		<path class="st1" d="M191.4,29.3c26.5,0,48.2,21.7,48.2,48.2v113.9c0,26.5-21.7,48.2-48.2,48.2H77.5c-26.5,0-48.2-21.7-48.2-48.2
			V77.5C29.3,51,51,29.3,77.5,29.3H191.4 M77.5,213.4h114c12.1,0,21.9-9.8,21.9-21.9v-114c0-12.1-9.8-21.9-21.9-21.9H77.5
			c-12.1,0-21.9,9.8-21.9,21.9v113.9C55.6,203.6,65.4,213.4,77.5,213.4 M169.6,73.1c14.5,0,26.3,11.8,26.3,26.3c0,0,0,0,0,0.1v74.5
			c0,12.1-9.8,21.9-21.9,21.9H95c-12.1,0-21.9-9.8-21.9-21.9V86.3c0-7.3,5.9-13.2,13.2-13.2h21.2c3.6,0,7.1,1.2,9.8,3.7
			c5.8,5.4,5.2,13.9,0.2,18.7l-18.1,18.1c0,0,0,0,0,0v55.9c0,0,0,0,0,0h70.1c0,0,0,0,0,0v-69c0,0,0,0,0,0c0,0,0,0,0,0l-24.9,24.9
			c-0.8,0.8-1.3,1.9-1.3,3.1v9.8c0,7.3-5.9,13.6-13.2,13.6c-0.1,0-0.2,0-0.3,0c-7.1-0.2-12.8-6-12.8-13.1v-10.3
			c0-8.2,3.2-15.9,9-21.7L152.8,80C157.3,75.5,163.2,73.1,169.6,73.1 M191.4,11.3H77.5C41,11.3,11.3,41,11.3,77.5v113.9
			c0,36.5,29.7,66.2,66.2,66.2h113.9c36.5,0,66.2-29.7,66.2-66.2V77.5C257.7,41,228,11.3,191.4,11.3L191.4,11.3z"/>
	</g>
</g>
</svg>
