<?xml version="1.0" encoding="UTF-8"?>
<svg id="Capa_2" data-name="Capa 2" xmlns="http://www.w3.org/2000/svg" viewBox="0 0 439.55 439.55">
  <defs>
    <style>
      .cls-1 {
        fill: #f9f4d9;
      }

      .cls-1, .cls-2 {
        stroke-width: 0px;
      }

      .cls-2 {
        fill: #0f0d0e;
      }
    </style>
  </defs>
  <g id="Capa_1-2" data-name="Capa 1">
    <g>
      <path class="cls-1" d="m73.69,427.05c-33.74,0-61.19-27.45-61.19-61.19s27.45-61.19,61.19-61.19h97.39c33.74,0,61.19,27.45,61.19,61.19s-27.45,61.19-61.19,61.19h-97.39Zm0-146.08c-33.74,0-61.19-27.45-61.19-61.19s27.45-61.19,61.19-61.19h292.17c33.74,0,61.19,27.45,61.19,61.19s-27.45,61.19-61.19,61.19H73.69Zm0-146.08c-33.74,0-61.19-27.45-61.19-61.19S39.95,12.5,73.69,12.5h194.78c33.74,0,61.19,27.45,61.19,61.19s-27.45,61.19-61.19,61.19H73.69Z"/>
      <path class="cls-2" d="m268.47,25c26.78,0,48.69,21.91,48.69,48.69s-21.91,48.69-48.69,48.69H73.69c-26.78,0-48.69-21.91-48.69-48.69s21.91-48.69,48.69-48.69h194.78m97.39,146.08c26.78,0,48.69,21.91,48.69,48.69s-21.91,48.69-48.69,48.69H73.69c-26.78,0-48.69-21.91-48.69-48.69s21.91-48.69,48.69-48.69h292.17m-194.78,146.08c26.78,0,48.69,21.91,48.69,48.69s-21.91,48.69-48.69,48.69h-97.39c-26.78,0-48.69-21.91-48.69-48.69s21.91-48.69,48.69-48.69h97.39M268.47,0H73.69C33.06,0,0,33.06,0,73.69c0,37.3,27.86,68.22,63.86,73.04C27.86,151.56,0,182.48,0,219.78s27.86,68.22,63.86,73.04C27.86,297.64,0,328.56,0,365.86c0,40.64,33.06,73.69,73.69,73.69h97.39c40.64,0,73.69-33.06,73.69-73.69,0-35.9-25.81-65.89-59.84-72.39h180.92c40.64,0,73.69-33.06,73.69-73.69s-33.06-73.69-73.69-73.69h-83.54c34.04-6.5,59.84-36.49,59.84-72.39,0-40.64-33.06-73.69-73.69-73.69h0Z"/>
    </g>
  </g>
</svg>