<?xml version="1.0" encoding="UTF-8"?>
<svg id="Capa_1" data-name="Capa 1" xmlns="http://www.w3.org/2000/svg" viewBox="0 0 710.94 669.97">
  <defs>
    <style>
      .cls-1 {
        fill: #11afdf;
        stroke: #231f20;
        stroke-miterlimit: 10;
        stroke-width: 12px;
      }

      .cls-2 {
        fill: #f6b428;
      }

      .cls-2, .cls-3 {
        stroke-width: 0px;
      }

      .cls-3 {
        fill: #231f20;
      }
    </style>
  </defs>
  <g>
    <path class="cls-1" d="m238.14,6c-5.81,0-11.72.42-17.59,1.26-17.21,2.45-33.84,8.82-49.44,18.93-22.46,14.56-45.34,29.35-67.46,43.66-9.78,6.33-19.57,12.65-29.35,18.98-1.12.73-2.47,1.56-3.89,2.45-4.49,2.8-10.08,6.27-16,10.78-16.88,12.85-29.63,28.56-37.89,46.72-8.49,18.66-11.86,39.01-10.02,60.48,1.52,17.71,6.7,34.3,15.38,49.34.66,1.15,1.34,2.28,2.05,3.41-6.81,11.37-10.38,24.54-10.35,38.76.13,50.84.13,102.57.13,152.61v22.12c0,33.65-.02,67.3-.04,101.67,0,2.43-.03,4.93-.05,7.57-.02,2.28-.04,4.57-.05,6.85-.02,4.16.23,8.07.74,11.93,1.94,14.59,8.14,27.84,17.93,38.32,10.12,10.84,23.37,18.01,38.31,20.73,5,.91,10.19,1.37,15.42,1.38,10.09,0,20.18,0,30.28,0,17.83,0,36.26,0,54.36.04h.11c11.73,0,23.21-2.76,33.62-8.04,6.32,3.24,13.19,5.52,20.43,6.75,4.84.82,9.91,1.24,15.06,1.24h.14s.06,0,.06,0h.1c3.06,0,6.05-.04,8.93-.07,3.2-.04,6.23-.07,9.17-.07h.59c7.33.01,14.7.04,22.06.07,9.23.04,18.77.08,28.22.08,1.37,0,2.74,0,4.1,0,28.69-.04,57.38-.1,86.07-.15,23.87-.05,47.74-.1,71.61-.13,1.08,0,2.15,0,3.22,0,7.75,0,15.72.04,23.43.08,3.79.02,7.59.04,11.38.05,1.72,0,3.44.02,5.16.03,2.95.02,5.91.04,8.86.04,1.68,0,3.37,0,5.05-.02,11.92-.1,23.8-3.28,34.35-9.2,4.83-2.71,8.83-5.11,12.59-7.56,29.85-19.48,60.16-39.3,89.48-58.47l9.15-5.98c1.95-1.28,3.54-2.45,4.66-3.29l23.18-16.97,2.7-29.15.13-1.35c.13-1.35.24-2.55.34-3.74l.02-.26c.12-1.49.38-4.6.35-8.4-.03-2.98-.06-5.94-.1-8.91-.05-4.14-.1-8.05-.12-11.96-.09-16.78-.17-33.56-.24-50.34-.08-16.8-.16-33.6-.24-50.41-.05-10.05-.12-20.11-.18-30.16-.06-9.3-.12-18.6-.17-27.9-.07-12.14-.54-28.27-3.68-45.46-3.83-20.97-9.49-39.15-17.33-55.59-7.28-15.27-16.63-28.91-27.79-40.54-11.8-12.28-25.66-22.39-41.2-30.03-20.97-10.3-43.67-16.18-69.4-17.97-5.35-.37-10.72-.56-15.96-.56-11.23,0-22.38.86-33.15,2.57-13.21,2.09-25.79,5.56-37.57,10.34-5.89-2.47-12.24-4.21-18.95-5.1-3.36-.44-6.74-.66-10.37-.66-.41,0-.82,0-1.24,0h-.11c-3.72.03-7.44.08-11.16.12-7.35.09-14.29.17-21.25.17h-.53c-8.15,0-16.53-.08-24.64-.15-4.82-.04-9.64-.08-14.46-.11,3.82-14.62,4.75-29.84,2.76-45.38-2.29-17.96-8.27-34.58-17.77-49.38-9.07-14.14-21.11-26.24-35.81-35.98-19.82-13.14-42.68-20.08-66.13-20.08h0Z"/>
    <path class="cls-3" d="m231.83,561.6c-1.21.75-1.94,1.2-2.66,1.66-17.78,11.38-35.56,22.75-53.31,34.17-1.61,1.04-3.21,1.54-5.15,1.54-28.24-.05-56.48-.03-84.71-.05-1.27,0-2.56-.1-3.81-.32-2.22-.4-3.15-1.43-3.45-3.67-.14-1.03-.18-2.07-.17-3.11.02-4.88.1-9.75.1-14.63.02-33.91.04-67.81.04-101.72,0-58.3.02-116.59-.13-174.89,0-3.76.99-5.98,4.09-8.2,17.02-12.22,33.84-24.71,50.73-37.11.56-.41,1.08-.86,1.93-1.55-4.8.44-9.13.85-13.54.44-10.31-.96-19.61-4.46-27.84-10.65-13.28-9.98-21.27-23.26-22.69-39.83-1.77-20.63,6.05-37.38,22.51-49.9,5.01-3.81,10.54-6.95,15.84-10.38,32.29-20.89,64.6-41.75,96.86-62.68,7.15-4.63,14.8-7.92,23.24-9.12,13.95-1.98,26.92.88,38.65,8.65,14.16,9.38,22.85,22.52,25.01,39.42,2.22,17.38-3.25,32.48-15.14,45.28-3.23,3.47-6.94,6.37-10.92,8.94-23.86,15.38-47.7,30.78-71.54,46.17-.59.38-1.15.82-1.85,1.31.84.81,1.75.54,2.56.55,6.16.02,12.32.01,18.48.01,13.76,0,27.52.02,41.28,0,7.44-.01,14.88-.12,22.32-.15,1.11,0,2.23.16,3.33.29,2.22.26,3.42,1.63,3.78,3.73.19,1.1.21,2.23.21,3.34,0,6.64-.02,13.27-.03,19.91,0,.85,0,1.69,0,2.81,1-.4,1.67-.63,2.3-.93,17.76-8.42,35.53-16.83,53.27-25.29.96-.46,1.72-1.33,2.63-1.95.84-.57,1.68-1.35,2.61-1.51,1.87-.33,3.81-.41,5.72-.41,13.92.07,27.83.26,41.75.27,11.2,0,22.39-.19,33.59-.29.88,0,1.77-.02,2.63.09,3.47.46,4.74,1.86,4.82,5.37.05,2.16-.06,4.32-.06,6.48,0,.86.07,1.72.11,2.73,3.59.39,6.99.26,10.4-.12,5.93-.66,11.43-2.92,17.08-4.61,3.15-.94,6.11-2.24,8.99-3.87,10.54-5.97,21.91-9.57,33.86-11.46,11.43-1.81,22.91-2.17,34.43-1.37,15.76,1.1,30.98,4.45,45.24,11.46,17.78,8.74,30.53,22.43,38.99,40.19,5.95,12.49,9.58,25.72,12.06,39.3,2.06,11.29,2.56,22.7,2.62,34.14.1,19.35.26,38.7.36,58.05.17,33.58.32,67.17.49,100.75.04,7.04.16,14.07.22,21.11,0,.95-.09,1.91-.16,2.86-.11,1.31-.24,2.62-.4,4.31-.24.18-.8.62-1.39,1.01-32.86,21.48-65.71,42.96-98.59,64.42-2.88,1.88-5.85,3.62-8.85,5.3-.93.52-2.09.89-3.15.9-6.08.05-12.15-.03-18.23-.05-12.8-.05-25.6-.15-38.39-.13-52.55.08-105.11.22-157.66.29-18.08.02-36.15-.12-54.23-.15-6.32,0-12.64.12-18.95.14-1.43,0-2.88-.08-4.29-.32-2.27-.39-3.36-1.55-3.69-3.79-.14-.94-.12-1.91-.12-2.87,0-9.04,0-18.07,0-27.11v-3.22Z"/>
  </g>
  <g>
    <path class="cls-2" d="m436.21,262.33c1.14-1.39,1.68-1.95,2.11-2.59,19.69-29.87,47.95-44.09,83.19-45.67,19.66-.88,38.92,1.15,57.33,8.36,25.36,9.92,41.54,28.68,50.62,53.96,6.53,18.19,9.94,37.09,10.15,56.28.69,62.48.69,124.96,1.13,187.45.03,4.79-1.72,5.82-6.13,5.79-28-.16-56-.22-83.99.04-5.24.05-6.39-1.74-6.38-6.6.14-50,.27-100-.05-149.99-.08-11.59-.87-23.38-3.13-34.71-5.36-26.83-23.57-39.49-50.79-36.62-29.13,3.07-43.7,17.48-48.35,48.61-1.37,9.18-2.01,18.56-2.05,27.85-.2,48.16-.09,96.33-.09,144.49q0,6.84-6.82,6.85c-27.5,0-55-.11-82.49.1-4.86.04-6.22-1.49-6.21-6.24.11-97.49.12-194.99,0-292.48,0-4.91,1.7-6.18,6.39-6.15,26.33.19,52.66.22,78.99-.02,5.19-.05,6.56,1.63,6.38,6.59-.35,9.65-.11,19.33-.09,28.99,0,1.59.16,3.19.29,5.72Z"/>
    <path class="cls-2" d="m191.12,373.49c0-48.49,0-96.99,0-145.48q0-6.84,6.81-6.86c27.5,0,54.99.1,82.49-.1,4.84-.03,6.27,1.51,6.26,6.27-.11,97.49-.11,194.98,0,292.47,0,4.89-1.61,6.16-6.32,6.13-27.83-.19-55.66-.2-83.49,0-4.68.03-5.86-1.44-5.85-5.95.14-48.83.09-97.66.09-146.48Z"/>
    <path class="cls-2" d="m184.41,125.52c.04-30.36,25.08-55.36,55.43-55.35,30.57.01,56.03,25.37,55.83,55.62-.2,30.22-25.26,55.24-55.6,55.52-30.24.28-55.7-25.24-55.66-55.79Z"/>
  </g>
</svg>