<?xml version="1.0" encoding="UTF-8"?>
<svg id="Capa_1" data-name="Capa 1" xmlns="http://www.w3.org/2000/svg" viewBox="0 0 410.61 410.61">
  <defs>
    <style>
      .cls-1 {
        fill: #f9f4da;
      }

      .cls-1, .cls-2 {
        stroke-width: 0px;
      }

      .cls-2 {
        fill: #231f20;
      }
    </style>
  </defs>
  <circle class="cls-2" cx="205.31" cy="205.31" r="205.31"/>
  <g>
    <path class="cls-1" d="m100.45,302.45V108.17h133.85v42.92h-73.14v39.25h67.77v37.84h-67.77v74.27h-60.71Z"/>
    <g>
      <path class="cls-1" d="m263.7,155.98c-.14-11.93,10.34-21.65,23.23-21.65,12.2,0,23.03,9.72,23.23,21.65-.14,12.2-11.03,21.92-23.23,21.92-12.82,0-23.37-9.72-23.23-21.92"/>
      <path class="cls-1" d="m255.16,275.45c4.27-14.62,9.51-35.64,9.51-56.05l-.14-11.72h45.29v11.72c-1.93,25.51-11.93,49.43-18.2,63.22l-2.69,6.55-7.93.14h-30.13l4.34-13.86h-.07Z"/>
    </g>
  </g>
</svg>