<?xml version="1.0" encoding="utf-8"?>
<!-- Generator: Adobe Illustrator 27.9.0, SVG Export Plug-In . SVG Version: 6.00 Build 0)  -->
<svg version="1.1" id="Capa_1" xmlns="http://www.w3.org/2000/svg" xmlns:xlink="http://www.w3.org/1999/xlink" x="0px" y="0px"
	 viewBox="0 0 475.1 475.1" style="enable-background:new 0 0 475.1 475.1;" xml:space="preserve">
<style type="text/css">
	.st0{fill:#F9F4D9;stroke:#0F0D0E;stroke-width:13;stroke-miterlimit:10;}
</style>
<g>
	<path class="st0" d="M386.5,342.6l-62.3-62.3c15-21.7,22.5-45.8,22.5-72.5c0-17.3-3.4-33.9-10.1-49.7
		c-6.7-15.8-15.8-29.4-27.2-40.9s-25.1-20.5-40.9-27.2C252.7,83.4,236.2,80,218.9,80c-17.3,0-33.9,3.4-49.7,10.1
		c-15.8,6.7-29.4,15.8-40.9,27.2c-11.4,11.4-20.5,25.1-27.2,40.9C94.4,174,91,190.6,91,207.9c0,17.3,3.4,33.9,10.1,49.7
		c6.7,15.8,15.8,29.4,27.2,40.9c11.4,11.4,25.1,20.5,40.9,27.2c15.8,6.7,32.4,10.1,49.7,10.1c26.6,0,50.8-7.5,72.5-22.5l62.3,62.1
		c4.4,4.6,9.8,6.9,16.3,6.9c6.3,0,11.7-2.3,16.3-6.9c4.6-4.6,6.9-10,6.9-16.3C393.2,352.6,391,347.1,386.5,342.6z M276.4,265.4
		c-15.9,15.9-35.1,23.9-57.5,23.9c-22.4,0-41.6-8-57.5-23.9c-15.9-15.9-23.9-35.1-23.9-57.5c0-22.4,8-41.6,23.9-57.5
		c15.9-15.9,35.1-23.9,57.5-23.9c22.4,0,41.6,8,57.5,23.9c15.9,15.9,23.9,35.1,23.9,57.5C300.2,230.3,292.3,249.4,276.4,265.4z"/>
</g>
</svg>
