<?xml version="1.0" encoding="utf-8"?>
<!-- Generator: Adobe Illustrator 27.9.0, SVG Export Plug-In . SVG Version: 6.00 Build 0)  -->
<svg version="1.1" id="Capa_1" xmlns="http://www.w3.org/2000/svg" xmlns:xlink="http://www.w3.org/1999/xlink" x="0px" y="0px"
	 viewBox="0 0 448 512" style="enable-background:new 0 0 448 512;" xml:space="preserve">
<style type="text/css">
	.st0{fill:#231F20;}
	.st1{fill:#785BA9;stroke:#231F20;stroke-width:7;stroke-linecap:round;stroke-linejoin:round;stroke-miterlimit:10;}
	.st2{fill:#F8F3D8;}
</style>
<g>
	<g>
		<g>
			<path class="st0" d="M302.2,422.8c-45,0-82.3-33.7-87.8-77.3L189.3,333c-13.2,7.5-28.3,11.5-43.6,11.5
				c-48.8,0.1-88.5-39.7-88.5-88.5s39.7-88.6,88.6-88.6c15.4,0,30.5,4,43.6,11.5l25.1-12.6c5.6-43.5,42.9-77.3,87.8-77.3
				c48.8,0.1,88.5,39.8,88.5,88.7c0,33.9-19.1,63.4-47.2,78.2c28,14.9,47.2,44.3,47.2,78.2C390.8,383.2,351.2,422.8,302.2,422.8z
				 M272.9,319.7c0.9,3.6,1.1,7.4,0.7,11.2c-0.1,1-0.2,2.1-0.2,3.5c0,15.9,12.9,28.9,28.9,28.9s28.9-12.9,28.9-28.9
				c0-16-12.9-28.9-28.9-28.9c-7.6,0-14.6,2.8-19.9,8C279.6,316.2,276.4,318.2,272.9,319.7z M145.8,227.1
				c-15.9,0-28.9,12.9-28.9,28.9s12.9,28.9,28.9,28.9c7.6,0,14.6-2.8,19.9-8c2.7-2.7,6-4.7,9.4-6.2c-0.9-3.6-1.1-7.4-0.7-11.2
				c0.1-1,0.2-2.1,0.2-3.5c0-1.4-0.1-2.5-0.2-3.5c-0.5-3.8-0.3-7.6,0.7-11.2c-3.4-1.4-6.7-3.5-9.4-6.2
				C160.3,230,153.2,227.1,145.8,227.1z M258.6,257.2c0.7-0.4,1.4-0.8,2.2-1.2c-0.7-0.4-1.5-0.8-2.2-1.2l-2.4,1.2L258.6,257.2z
				 M272.9,192.3c3.4,1.4,6.7,3.5,9.4,6.2c5.4,5.2,12.4,8,19.9,8c15.9,0,28.9-12.9,28.9-28.9c0-15.9-12.9-28.9-28.9-28.9
				c-16,0-28.9,12.9-28.9,28.9c0,1.4,0.1,2.5,0.2,3.5C274.1,185.1,273.9,188.8,272.9,192.3z"/>
			<path class="st1" d="M302.2,112.4c36,0,65.3,29.3,65.3,65.3s-29.3,65.3-65.3,65.3c-15.5,0-30.1-5.4-41.8-15.1l-49.5,24.8
				c0.1,1.1,0.1,2.2,0.1,3.4c0,1.1,0,2.3-0.1,3.4l49.5,24.8c11.7-9.8,26.3-15.1,41.8-15.1c36,0,65.3,29.3,65.3,65.3
				s-29.3,65.3-65.3,65.3s-65.3-29.3-65.3-65.3c0-1.1,0-2.3,0.1-3.4l-49.5-24.8c-11.7,9.8-26.3,15.1-41.8,15.1
				c-36,0-65.3-29.3-65.3-65.3s29.3-65.3,65.3-65.3c15.5,0,30.1,5.4,41.8,15.1l49.5-24.8c-0.1-1.1-0.1-2.2-0.1-3.4
				C237,141.8,266.2,112.4,302.2,112.4 M186.4,220.4c-1.7,0-3.3-0.6-4.6-1.8c-9.7-9.4-22.6-14.6-36.2-14.6
				c-28.7,0-52.2,23.4-52.2,52.2c0,28.8,23.4,52.2,52.2,52.2c13.6,0,26.4-5.2,36.2-14.6c1.2-1.2,2.9-1.8,4.6-1.8c1,0,2,0.3,2.9,0.7
				l57.5,28.7c2.5,1.2,4,4,3.6,6.8c-0.3,1.9-0.4,4-0.4,6.4c0,28.7,23.4,52.2,52.2,52.2c28.8,0,52.2-23.4,52.2-52.2
				c0-28.8-23.4-52.2-52.2-52.2c-13.6,0-26.4,5.2-36.2,14.6c-1.2,1.2-2.9,1.8-4.6,1.8c-1,0-2-0.3-2.9-0.7l-57.5-28.8
				c-2.5-1.2-4-4-3.6-6.8c0.3-1.9,0.4-4,0.4-6.4c0-2.4-0.1-4.5-0.4-6.4c-0.4-2.8,1.1-5.4,3.6-6.8l57.5-28.7c1-0.4,1.9-0.7,2.9-0.7
				c1.7,0,3.3,0.6,4.6,1.8c9.7,9.4,22.6,14.6,36.2,14.6c28.7,0,52.2-23.4,52.2-52.2c0-28.7-23.4-52.2-52.2-52.2
				c-28.8,0-52.2,23.4-52.2,52.2c0,2.4,0.1,4.5,0.4,6.4c0.4,2.8-1.1,5.4-3.6,6.8l-57.5,28.7C188.4,220.1,187.5,220.4,186.4,220.4
				 M302.2,65.9c-52.3,0-96.4,36.2-108.5,84.8l-4.5,2.3c-13.7-5.8-28.5-8.8-43.6-8.8C84,144.1,33.9,194.4,33.9,256
				S84,367.9,145.8,367.9c15,0,29.9-3.1,43.6-8.8l4.5,2.3c12.1,48.6,56.2,84.8,108.5,84.8c61.6,0,111.9-50.1,111.9-111.9
				c0-30.5-12.2-58.1-32.1-78.2c19.8-20.2,32.1-47.9,32.1-78.2C414.1,116,364,65.9,302.2,65.9L302.2,65.9z M296.7,178.4
				c0-0.1,0-0.3,0-0.6c0-3,2.5-5.6,5.6-5.6c3,0,5.6,2.5,5.6,5.6c0,3-2.5,5.6-5.6,5.6c-1.5,0-2.7-0.4-3.7-1.4
				c-0.5-0.5-1.1-1.1-1.7-1.5C296.9,179.7,296.8,179,296.7,178.4L296.7,178.4z M145.8,261.6c-3,0-5.6-2.5-5.6-5.6
				c0-3,2.5-5.6,5.6-5.6c1.5,0,2.7,0.4,3.7,1.4c0.5,0.5,1.1,1.1,1.7,1.5c0.1,0.6,0.1,1.3,0.2,1.9c0,0.1,0,0.3,0,0.6
				c0,0.4,0,0.5,0,0.6c-0.1,0.6-0.2,1.3-0.2,1.9c-0.5,0.5-1.1,1-1.7,1.5C148.5,261.1,147.3,261.6,145.8,261.6L145.8,261.6z
				 M296.9,331.7c0.5-0.5,1.1-1,1.6-1.5c1.1-1,2.2-1.5,3.8-1.5c3,0,5.6,2.5,5.6,5.6c0,3-2.5,5.6-5.6,5.6c-3,0-5.6-2.5-5.6-5.6
				c0-0.4,0-0.5,0-0.6C296.8,333,296.9,332.3,296.9,331.7L296.9,331.7z"/>
		</g>
		<g>
			<path class="st2" d="M302.2,401.8c-37.2,0-67.5-30.3-67.5-67.5c0-0.7,0-1.4,0-2l-47-23.4c-11.9,9.6-26.6,14.8-42.1,14.8
				c-37.1,0-67.4-30.3-67.4-67.5s30.3-67.5,67.5-67.5c15.5,0,30.2,5.2,42.1,14.8l47-23.4c0-0.7,0-1.3,0-2
				c0-37.2,30.3-67.5,67.5-67.5s67.5,30.3,67.5,67.5s-30.3,67.5-67.5,67.5c-15.5,0-30.2-5.2-42.1-14.8l-47,23.4c0,0.7,0,1.3,0,2
				c0,0.7,0,1.4,0,2l47,23.4c11.9-9.6,26.6-14.8,42.1-14.8c37.2,0,67.5,30.3,67.5,67.5S339.5,401.8,302.2,401.8z"/>
			<path class="st0" d="M302.2,119c32.4,0,58.7,26.3,58.7,58.7c0,32.4-26.3,58.7-58.7,58.7c-15.8,0-30.2-6.2-40.7-16.4L204,248.8
				c0.3,2.4,0.4,4.7,0.4,7.3s-0.1,4.9-0.4,7.3l57.5,28.7c10.5-10.2,24.8-16.4,40.7-16.4c32.4,0,58.7,26.3,58.7,58.7
				c0,32.4-26.3,58.7-58.7,58.7c-32.4,0-58.7-26.3-58.7-58.7c0-2.5,0.1-4.9,0.4-7.3l-57.5-28.7c-10.5,10.2-24.8,16.4-40.7,16.4
				C113.3,314.8,87,288.4,87,256s26.3-58.7,58.7-58.7c15.8,0,30.2,6.2,40.7,16.4L244,185c-0.3-2.4-0.4-4.8-0.4-7.3
				C243.6,145.3,269.8,119,302.2,119 M302.2,101.5c-40.9,0-74.4,32.4-76.2,72.9L188.7,193c-12.6-8.6-27.4-13.3-43-13.3
				c-42-0.1-76.2,34.2-76.2,76.2s34.2,76.3,76.3,76.3c15.5,0,30.5-4.7,43-13.3l37.3,18.7c1.8,40.5,35.3,72.9,76.2,72.9
				c42.1,0,76.3-34.2,76.3-76.3S344.4,258,302.3,258c-15.5,0-30.5,4.7-43,13.3L228.7,256l30.6-15.3c12.6,8.6,27.4,13.3,43,13.3
				c42.1,0,76.3-34.2,76.3-76.3S344.3,101.5,302.2,101.5L302.2,101.5z"/>
		</g>
	</g>
</g>
</svg>
